<?xml version="1.0" encoding="UTF-8" standalone="no"?>
<svg
   xmlns="http://www.w3.org/2000/svg"
   viewBox="0 0 500 138.45"
   height="138.45"
   width="500"
   xml:space="preserve"
   version="1.1">
   <g transform="matrix(1.3333333,0,0,-1.3333333,0,138.45)">
      <g transform="scale(0.07)">
         <!-- MONDEY large text -->
         <path style="fill:#231f20;fill-opacity:1;fill-rule:nonzero;stroke:none"
               d="M 0,410.59 v 932.77 H 182.645 L 441.762,621.254 707.867,1343.36 H 872.32 V 410.59 H 748.063 v 758.16 L 490.898,472.719 H 362.945 L 113.34,1170.11 V 410.59 H 0" />

         <path style="fill:#231f20;fill-opacity:1;fill-rule:nonzero;stroke:none"
               d="m 2060.55,410.59 v 932.77 h 129.84 l 469.62,-719.899 v 719.899 h 113.35 V 410.59 h -129.2 l -470.27,719.74 V 410.59 h -113.34" />

         <path style="fill:#231f20;fill-opacity:1;fill-rule:nonzero;stroke:none"
               d="m 3055.89,509.66 h 169.53 c 120.99,0 206.69,32.551 257.13,97.656 54.18,69.297 81.29,162.336 81.29,279.102 0,109.629 -26.69,195.742 -80.04,258.322 -32.34,38.22 -71,64.37 -115.96,78.44 -44.95,14.06 -112.6,21.11 -202.92,21.11 h -109.03 z m -132.64,-99.07 v 932.77 h 310.05 c 92.43,0 167.1,-10.29 224.03,-30.88 56.92,-20.6 106.18,-55.46 147.78,-104.62 65.96,-78.16 98.94,-181.1 98.94,-308.825 0,-144.109 -38.66,-260.937 -115.96,-350.418 -42.01,-49.179 -90.64,-84.465 -145.88,-105.879 -55.25,-21.437 -124.26,-32.148 -207.03,-32.148 h -311.93" />

         <path style="fill:#231f20;fill-opacity:1;fill-rule:nonzero;stroke:none"
               d="m 3826.06,410.59 v 932.77 h 521.14 v -99.07 H 3958.72 V 945.402 h 325.47 v -97.39 H 3958.72 V 509.66 h 415.58 v -99.07 h -548.24" />

         <path style="fill:#231f20;fill-opacity:1;fill-rule:nonzero;stroke:none"
               d="M 4744.51,410.59 V 800.082 L 4433.02,1343.36 H 4584 l 242.5,-421.715 260.69,421.715 h 123.28 L 4877.16,802.609 V 410.59 h -132.65" />

         <!-- Circular logo with multiple colored segments -->
         <g>
            <path style="fill:#1a1941;fill-opacity:1;fill-rule:nonzero;stroke:none"
                  d="m 968.344,926.813 c -19.285,-259.661 151.736,-419.84 255.816,-473.567 48.19,-24.859 80.26,-38.281 142.97,-51.969 37.84,-8.254 94.69,-11.738 132.24,-8.109 40.68,3.945 164.52,15.937 281.98,114.023 71.93,60.059 160.99,168.262 176.75,342.43 7.99,88.34 -5.2,221.849 -113.52,356.249 45.57,-54.63 69.02,-128.62 62.2,-215.823 -17.69,-225.137 -230.6,-453.219 -475.56,-509.469 244.96,56.25 457.87,284.332 475.56,509.469 6.82,87.203 -16.63,161.193 -62.2,215.823 -28.64,31.99 -55.69,62.19 -110.56,98.3 -59.86,39.36 -118.87,56.87 -130.09,59.97 -132.15,36.61 -224.3,18.12 -304.19,-7.32 -78.12,-24.88 -170.47,-89.19 -219.58,-152.9 C 1049.95,1164.7 979.211,1072.9 968.344,926.813" />

            <path style="fill:#ee2523;fill-opacity:1;fill-rule:nonzero;stroke:none"
                  d="m 1431.22,480.578 c 244.96,56.25 457.87,284.332 475.56,509.469 6.82,87.203 -16.63,161.193 -62.2,215.823 -29.28,32.71 -33.05,36.91 -60.97,61.4 -31.35,24.85 -33.9,26.88 -57.12,41.69 l -9.53,5.82 c 62.36,-37.27 96.72,-121.1 87.36,-240.24 -17.67,-225.106 -184.72,-491.063 -373.1,-593.962" />

            <path style="fill:#20428E;fill-opacity:1;fill-rule:nonzero;stroke:none"
                  d="m 1431.22,480.578 c 188.38,102.899 355.43,368.856 373.1,593.962 9.36,119.14 -25,202.97 -87.36,240.24 -12.66,7.06 -29.67,16.2 -42.66,22.63 -31.09,13.64 -31.09,13.64 -48.05,19.57 -29.82,9.57 -29.82,9.57 -45.21,13.34 -28.77,6.36 -28.77,6.36 -43.61,8.63 -28.44,3.68 -28.44,3.68 -43.25,4.62 -29.17,1.2 -29.17,1.2 -44.2,0.81 -29.79,-1.5 -30.94,-1.56 -46.68,-3.48 l -23.81,-3.51 c -49.57,-8.79 -87.08,-84.38 -97.5,-217.21 -17.68,-225.121 49.15,-529.387 149.23,-679.602" />

            <path style="fill:#ee2523;fill-opacity:1;fill-rule:nonzero;stroke:none"
                  d="m 1431.22,480.578 c -100.08,150.215 -166.91,454.481 -149.23,679.602 10.42,132.83 47.93,208.42 97.5,217.21 -8.17,-1.61 -19.07,-3.61 -27.2,-5.45 -33.95,-8.77 -35.99,-9.3 -55.6,-16.19 -34.86,-13.57 -37.71,-14.68 -60.02,-25.92 -33.92,-18.79 -39.15,-21.67 -64.84,-39.8 -32.31,-25.15 -39.04,-30.39 -67.77,-59.21 -29.03,-32.69 -36.93,-42.02 -64.71,-84.26 -19.23,-34.39 -34.41,-61.56 -50.311,-111.46 -12.086,-45.42 -14.613,-54.877 -19.976,-100.069 -0.168,-1.859 -0.333,-3.722 -0.485,-5.59 -17.676,-225.117 189.472,-426.07 462.642,-448.863" />

            <path style="fill:#20428E;fill-opacity:1;fill-rule:nonzero;stroke:none"
                  d="m 1431.22,480.578 c -273.17,22.793 -480.318,223.746 -462.642,448.863 0.152,1.868 0.317,3.731 0.485,5.59 l -0.719,-8.218 c -2,-52.465 -2.09,-54.524 0.656,-85.711 6.422,-47.907 7.41,-55.262 18.488,-95.079 15.032,-44.019 17.742,-51.933 37.212,-90.523 22,-37.859 27.24,-46.855 57.19,-84.984 28.63,-31.993 33.04,-36.895 60.96,-61.391 31.35,-24.855 33.92,-26.883 57.12,-41.68 31.51,-18.488 32.74,-19.215 52.2,-28.465 31.09,-13.628 31.09,-13.628 48.07,-19.574 l 2.42,-0.804 c 33.51,-11.497 77.87,7.839 128.56,61.976" />

            <path style="fill:#cc0130;fill-opacity:1;fill-rule:nonzero;stroke:none"
                  d="m 1431.22,480.578 c -50.69,-54.137 -95.05,-73.473 -128.56,-61.976 12.75,-4.028 29.86,-9.063 42.77,-12.52 28.7,-6.348 28.7,-6.348 43.61,-8.629 27.91,-3.617 27.91,-3.617 43.23,-4.617 29.17,-1.191 29.17,-1.191 44.2,-0.797 30.37,1.516 30.94,1.527 46.68,3.461 32.1,4.754 33.35,4.934 50.98,8.98 33.94,8.743 35.97,9.266 55.6,16.172 l 16.95,6.383 c -59.8,-23.972 -135.66,-8.137 -215.46,53.543" />

            <path style="fill:#20428E;fill-opacity:1;fill-rule:nonzero;stroke:none"
                  d="m 1431.22,480.578 c 79.8,-61.68 155.66,-77.515 215.46,-53.543 13.02,5.629 30.33,13.301 43.08,19.551 33.93,18.769 39.15,21.66 64.84,39.793 32.32,25.137 39.05,30.391 67.79,59.211 29.02,32.687 36.93,42.019 64.72,84.265 19.23,34.375 34.4,61.555 50.3,111.485 11.77,44.152 14.94,56.031 20.69,108.281 1.94,50.285 2.18,56.75 -1.92,97.793 -7.59,47.609 -8.75,54.936 -20.83,94.586 l -11.21,30.84 c 17.75,-44.36 25.56,-93.574 21.44,-146.051 C 1927.9,701.672 1697.61,501.906 1431.22,480.578" />

            <path style="fill:#cc0130;fill-opacity:1;fill-rule:nonzero;stroke:none"
                  d="m 1906.78,990.047 c -17.69,-225.137 -230.6,-453.219 -475.56,-509.469 266.39,21.328 496.68,221.094 514.36,446.211 4.12,52.477 -3.69,101.691 -21.44,146.051 -8.02,17.94 -19.19,41.64 -28.38,59.02 -24.2,39.34 -27.32,44.39 -51.18,74.01 45.57,-54.63 69.02,-128.62 62.2,-215.823" />

            <!-- Additional colored segments -->
            <path style="fill:#cc0130;fill-opacity:1;fill-rule:nonzero;stroke:none"
                  d="m 1716.96,1314.78 9.53,-5.82 c 31.4,-20.99 35.41,-23.69 57.12,-41.69 29.81,-27 36.03,-32.6 60.97,-61.4 -60.26,72.24 -159.16,110.65 -277.7,101.13 -4.32,5.16 -9.99,9.78 -16.65,13.72 65.71,23.42 123.08,20.15 166.73,-5.94" />

            <path style="fill:#20428E;fill-opacity:1;fill-rule:nonzero;stroke:none"
                  d="m 1379.49,1377.39 23.81,3.51 c 31.01,3.05 31.01,3.05 46.68,3.48 28.87,0.12 28.87,0.12 44.2,-0.81 23.43,-1.98 23.43,-1.98 43.25,-4.62 28.99,-5.06 28.99,-5.06 43.61,-8.63 29.33,-7.89 29.88,-8.05 45.21,-13.34 30.32,-11.4 31.51,-11.84 48.05,-19.57 12.94,-6.51 30.06,-15.48 42.66,-22.63 -43.65,26.09 -101.02,29.36 -166.73,5.94 -22.2,13.19 -55.27,18.99 -84.87,13.91 -30.5,33.6 -59.85,47.39 -85.87,42.76" />

            <path style="fill:#cc0130;fill-opacity:1;fill-rule:nonzero;stroke:none"
                  d="m 969.063,935.031 c 6.511,48.114 7.695,56.782 19.976,100.069 12.661,35.88 23.581,66.86 50.311,111.46 23.78,35.94 30.19,45.59 64.71,84.26 30.35,29.64 35.82,34.99 67.77,59.21 33.92,22.95 37.48,25.34 64.84,39.8 34.76,16.52 36.84,17.5 60.02,25.92 34.79,11.27 35.45,11.5 55.6,16.19 8.16,1.65 19.01,4.02 27.2,5.45 26.02,4.63 55.37,-9.16 85.87,-42.76 -2.16,-0.36 -4.27,-0.77 -6.36,-1.26 -26.92,-6.18 -43.07,-20.36 -44.57,-36.23 -235.26,-11.95 -426.395,-162.33 -445.367,-362.109" />

            <path style="fill:#20428E;fill-opacity:1;fill-rule:nonzero;stroke:none"
                  d="m 1302.66,418.602 -2.42,0.804 c -30.34,11.41 -31.52,11.832 -48.07,19.574 -30.96,15.598 -33.49,16.883 -52.2,28.465 -31.37,20.981 -35.4,23.68 -57.12,41.68 -29.79,26.996 -36.01,32.609 -60.96,61.391 -25.96,33.539 -32.93,42.558 -57.19,84.984 -19.7,40.641 -23.79,49.094 -37.212,90.523 -11.945,46.497 -13.789,53.637 -18.488,95.079 -2.766,51.097 -2.93,54.156 -0.656,85.711 l 0.719,8.218 c 18.972,199.779 210.107,350.159 445.367,362.109 -0.72,-7.59 1.9,-15.57 8.3,-23.24 8.02,-9.61 20.72,-17.27 35.64,-22.36 -108.98,-145.36 -203.45,-400.185 -219.35,-602.747 -10.44,-132.941 15.31,-213.648 63.64,-230.191" />

            <path style="fill:#cc0130;fill-opacity:1;fill-rule:nonzero;stroke:none"
                  d="m 1646.68,427.035 -16.95,-6.383 c -34.75,-11.269 -35.42,-11.48 -55.6,-16.172 -33.51,-6.812 -33.51,-6.812 -50.98,-8.98 -31.02,-3.051 -31.02,-3.051 -46.68,-3.461 -28.77,-0.137 -28.77,-0.137 -44.2,0.797 -21.49,1.816 -21.49,1.816 -43.23,4.617 -28.27,4.934 -29.38,5.113 -43.61,8.629 -12.91,3.469 -30.04,8.453 -42.77,12.52 -48.33,16.543 -74.08,97.25 -63.64,230.191 15.9,202.562 110.37,457.387 219.35,602.747 21.9,-7.49 48.57,-9.45 72.24,-4.02 5.1,1.17 9.81,2.62 14.12,4.32 143.4,-144.45 241.56,-398.57 225.68,-601.133 -9.37,-119.238 -56.38,-196.664 -123.73,-223.672" />

            <path style="fill:#20428E;fill-opacity:1;fill-rule:nonzero;stroke:none"
                  d="m 1924.14,1072.84 11.21,-30.84 c 12.78,-45.062 15.07,-53.18 20.83,-94.586 3.82,-48.676 4.42,-56.16 1.92,-97.793 -5.58,-47.051 -6.91,-58.223 -20.69,-108.281 -12.66,-35.899 -23.59,-66.863 -50.3,-111.485 -23.8,-35.925 -30.2,-45.605 -64.72,-84.265 -30.36,-29.649 -35.83,-35 -67.79,-59.211 -33.93,-22.938 -37.46,-25.352 -64.84,-39.793 -12.82,-6.102 -29.98,-14.074 -43.08,-19.551 67.35,27.008 114.36,104.434 123.73,223.672 15.88,202.563 -82.28,456.683 -225.68,601.143 24.46,9.68 35.56,27.28 28.45,44.86 167.92,-9.87 300.17,-96.99 350.96,-223.87" />

            <path style="fill:#cc0130;fill-opacity:1;fill-rule:nonzero;stroke:none"
                  d="m 1844.58,1205.87 c 27.52,-35.53 31.76,-41 51.18,-74.01 9.03,-17.47 20.54,-41 28.38,-59.02 -50.79,126.88 -183.04,214 -350.96,223.87 -1.39,3.45 -3.48,6.9 -6.3,10.29 118.54,9.52 217.44,-28.89 277.7,-101.13" />
         </g>
      </g>
   </g>
</svg>
